<svg xmlns="http://www.w3.org/2000/svg" height="300" width="350" id="hangman">
  <g id="body">
    <g id="head">
    <circle cx="200" cy="80" r="20" stroke="white" stroke-width="4" fill="#282c34"/>
      <g id="xEyes">
        <line x1="190" y1="78" x2="196" y2="84" stroke="white" stroke-width="2"/>
        <line x1="204" y1="78" x2="210" y2="84" stroke="white" stroke-width="2"/>
        <line x1="190" y1="84" x2="196" y2="78" stroke="white" stroke-width="2"/>
        <line x1="204" y1="84" x2="210" y2="78" stroke="white" stroke-width="2"/>
      </g>
    </g>
    <line x1="200" y1="100" x2="200" y2="150" stroke="white" stroke-width="4"/>
    <line id="armL" x1="200" y1="120" x2="170" y2="140" stroke="white" stroke-width="4"/>
    <line id="armR" x1="200" y1="120" x2="230" y2="140" stroke="white" stroke-width="4"/>
    <line id="legL" x1="200" y1="150" x2="180" y2="190" stroke="white" stroke-width="4"/>
    <line id="legR" x1="200" y1="150" x2="220" y2="190" stroke="white" stroke-width="4"/>
  </g>
    <line x1="10" y1="250" x2="150" y2="250" stroke="white" stroke-width="4"/>
    <line id="door1" x1="150" y1="250" x2="200" y2="250" stroke="white" stroke-width="4"/>
    <line  id="door2" x1="200" y1="250" x2="250" y2="250" stroke="white" stroke-width="4"/>
    <line x1="245" y1="250" x2="390" y2="250" stroke="white" stroke-width="4"/>
    <line x1="100" y1="250" x2="100" y2="18" stroke="white" stroke-width="4"/>
    <line x1="100" y1="20" x2="200" y2="20" stroke="white" stroke-width="4" />
    <line id="rope" x1="200" y1="18" x2="200" y2="60" stroke="white" stroke-width="4"/>
  </svg>