<?xml version="1.0" encoding="utf-8"?>
<!-- Generator: Adobe Illustrator 15.1.0, SVG Export Plug-In . SVG Version: 6.00 Build 0)  -->
<!DOCTYPE svg PUBLIC "-//W3C//DTD SVG 1.1//EN" "http://www.w3.org/Graphics/SVG/1.1/DTD/svg11.dtd">
<svg version="1.1" id="Layer_1" xmlns="http://www.w3.org/2000/svg" xmlns:xlink="http://www.w3.org/1999/xlink" x="0px" y="0px"
	 width="536.4px" height="327.6px" viewBox="0 0 536.4 327.6" enable-background="new 0 0 536.4 327.6" xml:space="preserve">
<path fill-rule="evenodd" clip-rule="evenodd" fill="#242E39" d="M267.625,18.234c1.183-2.693,5.214,0.004,7,0
	C273.442,20.927,269.411,18.23,267.625,18.234z"/>
<path fill-rule="evenodd" clip-rule="evenodd" fill="#DAC4BB" d="M246.625,19.234c0.221-0.779,0.837-1.163,2-1
	C248.404,19.014,247.788,19.397,246.625,19.234z"/>
<path fill-rule="evenodd" clip-rule="evenodd" fill="#242E39" d="M252.625,19.234c-0.505,1.907-6.102,3.792-3,6
	c-0.979,1.115-5.771,3.435-7,1C243.794,23.35,241.843,20.104,252.625,19.234z"/>
<path fill-rule="evenodd" clip-rule="evenodd" fill="#B89883" d="M251.625,22.234c0.85-1.483,2.517-2.15,5-2
	C255.775,21.718,254.108,22.384,251.625,22.234z"/>
<path fill-rule="evenodd" clip-rule="evenodd" fill="#B89883" d="M256.625,22.234c1.027,3.36-3.11,1.557-5,2
	C252.472,22.748,254.845,22.787,256.625,22.234z"/>
<path fill-rule="evenodd" clip-rule="evenodd" fill="#7F6A5C" d="M261.625,27.234C261.827,24.239,265.778,28.191,261.625,27.234
	L261.625,27.234z"/>
<path fill-rule="evenodd" clip-rule="evenodd" fill="#7F6A5C" d="M260.625,27.234c-0.92,1.747-3.126,2.207-6,2
	C253.678,25.621,258.563,27.84,260.625,27.234z"/>
<path fill-rule="evenodd" clip-rule="evenodd" fill="#B89883" d="M265.625,30.234c1.453-1.547,3.9-2.1,7-2
	C271.172,29.781,268.725,30.334,265.625,30.234z"/>
<path fill-rule="evenodd" clip-rule="evenodd" fill="#B89883" d="M219.625,39.234C222.62,39.437,218.668,43.388,219.625,39.234
	L219.625,39.234z"/>
<path fill-rule="evenodd" clip-rule="evenodd" fill="#B89883" d="M295.625,51.234C296.783,47.283,296.783,55.186,295.625,51.234
	L295.625,51.234z"/>
<path fill-rule="evenodd" clip-rule="evenodd" fill="#B89883" d="M235.625,60.234C238.979,57.817,233.208,63.589,235.625,60.234
	L235.625,60.234z"/>
<path fill-rule="evenodd" clip-rule="evenodd" fill="#242E39" d="M329.625,71.234c-0.256,3.923,3.617,3.717,3,8
	c-1.122,0.211-1.557,1.11-2,2c-2.38-3.454-1.428-4.381-2-10C328.958,71.234,329.292,71.234,329.625,71.234z"/>
<path fill-rule="evenodd" clip-rule="evenodd" fill="#DAC4BB" d="M300.625,73.234c1.615-0.282,1.722,0.945,3,1
	C304.021,76.175,299.07,75.695,300.625,73.234z"/>
<path fill-rule="evenodd" clip-rule="evenodd" fill="#7F6A5C" d="M286.625,76.234c-0.333,0-0.667,0-1,0
	C280.686,76.832,286.665,73.303,286.625,76.234z"/>
<path fill-rule="evenodd" clip-rule="evenodd" fill="#DAC4BB" d="M285.625,76.234c0.333,0,0.667,0,1,0c1.453,0.547,5.169-1.168,5,1
	c-0.667,0-1.333,0-2,0c-1.419-0.086-2.832-0.165-3,1c-0.667,0-1.333,0-2,0c-2.409-0.409-2.174,1.826-5,1
	C279.155,75.765,285.052,78.661,285.625,76.234z"/>
<path fill-rule="evenodd" clip-rule="evenodd" fill="#B89883" d="M286.625,78.234c0.168-1.165,1.581-1.086,3-1
	C289.457,78.399,288.044,78.32,286.625,78.234z"/>
<path fill-rule="evenodd" clip-rule="evenodd" fill="#DAC4BB" d="M233.625,79.234c0,0.333,0,0.667,0,1c-0.027,0.973-1.224,0.776-2,1
	c0.184-0.851-0.39-0.943-1-1C230.787,79.063,232.448,79.391,233.625,79.234z"/>
<path fill-rule="evenodd" clip-rule="evenodd" fill="#FFFFFF" d="M233.625,80.234c0-0.333,0-0.667,0-1
	C236.099,79.107,235.325,80.458,233.625,80.234z"/>
<path fill-rule="evenodd" clip-rule="evenodd" fill="#FFFFFF" d="M238.625,80.234c-2.474,0.127-1.7-1.224,0-1
	C238.625,79.568,238.625,79.901,238.625,80.234z"/>
<path fill-rule="evenodd" clip-rule="evenodd" fill="#DAC4BB" d="M238.625,80.234c0-0.333,0-0.667,0-1
	C243.29,78.526,243.29,80.943,238.625,80.234z"/>
<path fill-rule="evenodd" clip-rule="evenodd" fill="#242E39" d="M323.625,80.234C326.355,78.701,322.986,90.646,323.625,80.234
	L323.625,80.234z"/>
<path fill-rule="evenodd" clip-rule="evenodd" fill="#7F6A5C" d="M237.625,81.234c-3.803,0.611-6.431,6.329-10,4
	c1.903,3.673-1.514,2.887-1,7c-4.883-0.829-3.489-3.986-2-7c-0.111-2.448-3.306-0.212-3,1
	C220.286,78.54,231.439,83.025,237.625,81.234z"/>
<path fill-rule="evenodd" clip-rule="evenodd" fill="#B89883" d="M313.625,82.234c-0.333,0-0.667,0-1,0
	C310.845,82.09,313.059,80.454,313.625,82.234z"/>
<path fill-rule="evenodd" clip-rule="evenodd" fill="#B89883" d="M320.625,82.234C321.783,78.283,321.783,86.186,320.625,82.234
	L320.625,82.234z"/>
<path fill-rule="evenodd" clip-rule="evenodd" fill="#DAC4BB" d="M239.625,89.234c0-0.333,0-0.667,0-1c-2.038-2.292-5.233,1.465-7-2
	c2.433-5.119,13.405-5.043,17-1c-2.77,2.957-6.977-1.704-9,2c0,0.667,0,1.333,0,2C240.292,89.234,239.958,89.234,239.625,89.234z"/>
<path fill-rule="evenodd" clip-rule="evenodd" fill="#DAC4BB" d="M283.625,84.234c3.016,1.411,12.595-2.411,14,3
	C294.526,88.629,285.586,87.301,283.625,84.234z"/>
<path fill-rule="evenodd" clip-rule="evenodd" fill="#242E39" d="M300.625,85.234C302.307,81.697,303.749,88.499,300.625,85.234
	L300.625,85.234z"/>
<path fill-rule="evenodd" clip-rule="evenodd" fill="#7F6A5C" d="M213.625,86.234c1.496,0.17,3.69-0.357,4,1
	C216.129,87.064,213.935,87.591,213.625,86.234z"/>
<path fill-rule="evenodd" clip-rule="evenodd" fill="#7F6A5C" d="M238.625,90.234c-0.184-0.851,0.39-0.943,1-1c0.333,0,0.667,0,1,0
	s0.667,0,1,0C241.463,90.406,239.802,90.078,238.625,90.234z"/>
<path fill-rule="evenodd" clip-rule="evenodd" fill="#242E39" d="M241.625,89.234c0.667,0,1.333,0,2,0c0.027,0.973,1.224,0.776,2,1
	c-4.087,4.453-8.974,1.961-15,4c0.424-3.242,5.343-1.99,7-4c0.333,0,0.667,0,1,0C239.802,90.078,241.463,90.406,241.625,89.234z"/>
<path fill-rule="evenodd" clip-rule="evenodd" fill="#242E39" d="M274.625,89.234c0,0.333,0,0.667,0,1c0.314,1.352,1.424,1.91,1,4
	c-1.321-0.012-0.914-1.752-2-2c0-0.333,0-0.667,0-1C273.849,90.458,273.652,89.262,274.625,89.234z"/>
<path fill-rule="evenodd" clip-rule="evenodd" fill="#242E39" d="M300.625,95.234c-5.706-0.96-12.696-0.637-14-6
	C293.505,89.021,298.772,90.42,300.625,95.234z"/>
<path fill-rule="evenodd" clip-rule="evenodd" fill="#DAC4BB" d="M255.625,91.234c0,0.333,0,0.667,0,1c-1.258,0.248-1.009,1.988,0,2
	c0,0.333,0,0.667,0,1c-0.755,3.578-2.313,6.353-6,7c1.117-2.156,6.641-6.179,2-8c0.997-1.336,2.703-1.964,3-4
	C255.476,90.051,255.568,90.625,255.625,91.234z"/>
<path fill-rule="evenodd" clip-rule="evenodd" fill="#7F6A5C" d="M321.625,91.234C322.783,87.283,322.783,95.186,321.625,91.234
	L321.625,91.234z"/>
<path fill-rule="evenodd" clip-rule="evenodd" fill="#B89883" d="M255.625,92.234c0,0.667,0,1.333,0,2
	C254.616,94.223,254.367,92.482,255.625,92.234z"/>
<path fill-rule="evenodd" clip-rule="evenodd" fill="#DAC4BB" d="M278.625,93.234c2.138,2.196,7.502,1.164,7,6
	C282.332,98.396,275.659,97.178,278.625,93.234z"/>
<path fill-rule="evenodd" clip-rule="evenodd" fill="#7F6A5C" d="M239.625,97.234C239.827,94.239,243.778,98.191,239.625,97.234
	L239.625,97.234z"/>
<path fill-rule="evenodd" clip-rule="evenodd" fill="#DAC4BB" d="M302.625,98.234c0.667,0,1.333,0,2,0c0,0.667,0,1.333,0,2
	c-0.667,0-1.333,0-2,0C302.625,99.568,302.625,98.901,302.625,98.234z"/>
<path fill-rule="evenodd" clip-rule="evenodd" fill="#7F6A5C" d="M203.625,104.234C204.198,100.223,202.78,110.149,203.625,104.234
	L203.625,104.234z"/>
<path fill-rule="evenodd" clip-rule="evenodd" fill="#DAC4BB" d="M246.625,104.234C246.827,101.239,250.778,105.191,246.625,104.234
	L246.625,104.234z"/>
<path fill-rule="evenodd" clip-rule="evenodd" fill="#DAC4BB" d="M241.625,108.234C244.043,103.743,240.886,109.606,241.625,108.234
	L241.625,108.234z"/>
<path fill-rule="evenodd" clip-rule="evenodd" fill="#7F6A5C" d="M207.625,109.234C208.783,105.283,208.783,113.186,207.625,109.234
	L207.625,109.234z"/>
<path fill-rule="evenodd" clip-rule="evenodd" fill="#DAC4BB" d="M231.625,109.234C231.827,106.239,235.778,110.191,231.625,109.234
	L231.625,109.234z"/>
<path fill-rule="evenodd" clip-rule="evenodd" fill="#DAC4BB" d="M234.625,109.234C234.827,106.239,238.778,110.191,234.625,109.234
	L234.625,109.234z"/>
<path fill-rule="evenodd" clip-rule="evenodd" fill="#FFFFFF" d="M266.625,114.234c0.168,2.168-3.547,0.453-5,1
	C262.867,112.175,264.533,112.043,266.625,114.234z"/>
<path fill-rule="evenodd" clip-rule="evenodd" fill="#DAC4BB" d="M274.625,115.234c1.117-2.922,3.251,1.272,3,3
	C275.319,118.541,276.514,115.345,274.625,115.234z"/>
<path fill-rule="evenodd" clip-rule="evenodd" fill="#242E39" d="M274.625,127.234c-2.492-2.749-7.582,0.361-9,2
	c-4.642-1.024-6.762-4.571-13-4c0.897-2.103,1.554-4.446,3-6c2.738,1.595,4.934,3.732,8,5c3.118-0.548,4.303-3.031,7-4
	c4.037,0.629,4.429,4.904,8,6c-0.168,1.165-1.581,1.086-3,1C275.292,127.234,274.958,127.234,274.625,127.234z"/>
<path fill-rule="evenodd" clip-rule="evenodd" fill="#DAC4BB" d="M248.625,121.234c4.483,3.773-1.92,9.622-7,10
	C243.265,127.208,246.212,124.488,248.625,121.234z"/>
<path fill-rule="evenodd" clip-rule="evenodd" fill="#DAC4BB" d="M328.625,123.234C329.335,119.683,327.134,130.69,328.625,123.234
	L328.625,123.234z"/>
<path fill-rule="evenodd" clip-rule="evenodd" fill="#DAC4BB" d="M203.625,123.234c2.236,0.431,0.405,4.928,1,7
	C202.389,129.804,204.22,125.306,203.625,123.234z"/>
<path fill-rule="evenodd" clip-rule="evenodd" fill="#DAC4BB" d="M281.625,124.234c3.511-0.178,3.289,3.378,6,4
	C285.106,132.436,280.529,131,281.625,124.234z"/>
<path fill-rule="evenodd" clip-rule="evenodd" fill="#B89883" d="M321.625,126.234C324.979,123.817,319.208,129.589,321.625,126.234
	L321.625,126.234z"/>
<path fill-rule="evenodd" clip-rule="evenodd" fill="#DAC4BB" d="M272.625,136.234c0.567-4.909,1.941-3.809,2-8
	C276.693,129.726,276.009,136.884,272.625,136.234z"/>
<path fill-rule="evenodd" clip-rule="evenodd" fill="#B89883" d="M320.625,129.234c1.486,0.847,1.447,3.22,2,5
	C320.438,134.087,320.478,131.715,320.625,129.234z"/>
<path fill-rule="evenodd" clip-rule="evenodd" fill="#B89883" d="M210.625,131.234c1.895-1.177,0.433,9.529,2,12
	C207.684,143.029,211.953,136.567,210.625,131.234z"/>
<path fill-rule="evenodd" clip-rule="evenodd" fill="#7F6A5C" d="M220.625,130.234c0.851-0.184,0.943,0.39,1,1
	c-1.555,3.555,3.396,0.604,3,3c-0.233,3.718-3.546,2.802-6,2C217.833,132.776,219.737,132.013,220.625,130.234z"/>
<path fill-rule="evenodd" clip-rule="evenodd" fill="#DAC4BB" d="M258.625,140.234c-0.596-2.509-0.803-3.349-2-7
	c2.768-3.688,8.482-0.359,7,6C261.216,138.825,261.451,141.061,258.625,140.234z M258.625,133.234
	C257.822,139.288,263.209,133.901,258.625,133.234L258.625,133.234z"/>
<path fill-rule="evenodd" clip-rule="evenodd" fill="#DAC4BB" d="M268.625,131.234c2.674,2.417,0.281,8.224-4,7
	c-0.017-1.464,4.217-3.169,0-3c0.529-0.804,1.043-1.624,1-3C267.065,133.353,268.065,133.313,268.625,131.234z"/>
<path fill-rule="evenodd" clip-rule="evenodd" fill="#DAC4BB" d="M204.625,133.234c0,0.667,0,1.333,0,2
	C203.616,135.223,203.367,133.482,204.625,133.234z"/>
<path fill-rule="evenodd" clip-rule="evenodd" fill="#B89883" d="M258.625,133.234C263.209,133.901,257.822,139.288,258.625,133.234
	L258.625,133.234z"/>
<path fill-rule="evenodd" clip-rule="evenodd" fill="#7F6A5C" d="M238.625,134.234c-1.722,2.611-1.073,7.593-6,7
	C232.123,136.399,235.595,135.538,238.625,134.234z"/>
<path fill-rule="evenodd" clip-rule="evenodd" fill="#DAC4BB" d="M240.625,138.234C237.587,137.053,241.709,132.93,240.625,138.234
	L240.625,138.234z"/>
<path fill-rule="evenodd" clip-rule="evenodd" fill="#B89883" d="M321.625,135.234c3.129,3.071,1.106,9.014,3,15
	c-1.264-1.353-5.276-1.922-4,2c-2.169,0.168-0.453-3.547-1-5c-3.804-1.47-0.196,4.47-4,3c1.037-2.63,0.808-6.526,5-6
	C318.981,140.984,320.236,138.045,321.625,135.234z"/>
<path fill-rule="evenodd" clip-rule="evenodd" fill="#DAC4BB" d="M206.625,137.234C207.783,133.283,207.783,141.186,206.625,137.234
	L206.625,137.234z"/>
<path fill-rule="evenodd" clip-rule="evenodd" fill="#DAC4BB" d="M332.625,137.234c-0.224,0.776-0.027,1.973-1,2
	C331.849,138.458,331.652,137.262,332.625,137.234z"/>
<path fill-rule="evenodd" clip-rule="evenodd" fill="#B89883" d="M245.625,142.234C246.783,138.283,246.783,146.186,245.625,142.234
	L245.625,142.234z"/>
<path fill-rule="evenodd" clip-rule="evenodd" fill="#242E39" d="M275.625,146.234c0.169-2.168-3.547-0.453-5-1
	c5.274-3.586,13.04,1.388,16-3c1.894,3.106,6.138,3.863,7,8c-6.002-0.332-7.855-4.811-15-4
	C277.198,145.845,276.938,145.034,275.625,146.234z"/>
<path fill-rule="evenodd" clip-rule="evenodd" fill="#B89883" d="M265.625,146.234c-0.451-1.633,5.45-1.633,5,0
	C268.958,146.234,267.292,146.234,265.625,146.234z"/>
<path fill-rule="evenodd" clip-rule="evenodd" fill="#DAC4BB" d="M294.625,155.234c1.505-4.495,2.75-9.25,8-10
	c-0.693,5.531-3.475,6.352-2,12C297.479,157.713,296.716,155.81,294.625,155.234z"/>
<path fill-rule="evenodd" clip-rule="evenodd" fill="#DAC4BB" d="M271.625,146.234c-0.066,3.399,5.136,1.531,5,5
	c-8.982-1.25-11.986,0.325-22-2c0.313-3.354,4.531-2.802,8-3c1,0,2,0,3,0c1.667,0,3.333,0,5,0
	C270.958,146.234,271.292,146.234,271.625,146.234z"/>
<path fill-rule="evenodd" clip-rule="evenodd" fill="#242E39" d="M325.625,147.234c0.221-0.779,0.837-1.163,2-1c0,0.333,0,0.667,0,1
	C326.958,147.234,326.292,147.234,325.625,147.234z"/>
<path fill-rule="evenodd" clip-rule="evenodd" fill="#DAC4BB" d="M228.625,148.234C231.113,144.334,230.083,151.548,228.625,148.234
	L228.625,148.234z"/>
<path fill-rule="evenodd" clip-rule="evenodd" fill="#B89883" d="M317.625,154.234C317.827,151.239,321.778,155.19,317.625,154.234
	L317.625,154.234z"/>
<path fill-rule="evenodd" clip-rule="evenodd" fill="#7F6A5C" d="M224.625,155.234c1.423-4.39,4.12,4.701,0,3
	C225.318,157.428,226.181,155.495,224.625,155.234z"/>
<path fill-rule="evenodd" clip-rule="evenodd" fill="#7F6A5C" d="M256.625,158.234c-2.764,5.783-4.887,0.414-11,1
	c0.673-2.31,3.794-2.927,7-5C255.598,157.371,250.006,160.295,256.625,158.234z"/>
<path fill-rule="evenodd" clip-rule="evenodd" fill="#242E39" d="M211.625,157.234c3.16-3.249,0.371,2.983,4,2
	c-0.055,1.278-1.282,1.385-1,3C212.06,162.133,213.018,158.508,211.625,157.234z"/>
<path fill-rule="evenodd" clip-rule="evenodd" fill="#7F6A5C" d="M279.625,160.234C280.783,156.283,280.783,164.186,279.625,160.234
	L279.625,160.234z"/>
<path fill-rule="evenodd" clip-rule="evenodd" fill="#DAC4BB" d="M287.625,159.234c2.729-0.729,2.013,1.987,4,2
	c-0.31,1.357-2.504,0.83-4,1C287.625,161.234,287.625,160.234,287.625,159.234z"/>
<path fill-rule="evenodd" clip-rule="evenodd" fill="#7F6A5C" d="M276.625,160.234c1.766-0.319,1.785,5.602-1,4
	C275.201,162.144,276.311,161.586,276.625,160.234z"/>
<path fill-rule="evenodd" clip-rule="evenodd" fill="#7F6A5C" d="M257.625,163.234c-3.458-0.813-4.222,1.867-6,0
	C252.4,162.323,258.07,159.125,257.625,163.234z"/>
<path fill-rule="evenodd" clip-rule="evenodd" fill="#DAC4BB" d="M244.625,163.234C244.827,160.239,248.778,164.19,244.625,163.234
	L244.625,163.234z"/>
<path fill-rule="evenodd" clip-rule="evenodd" fill="#242E39" d="M317.625,162.234c-0.437,1.23-1.279,2.054-3,2
	C315.062,163.004,315.904,162.181,317.625,162.234z"/>
<path fill-rule="evenodd" clip-rule="evenodd" fill="#DAC4BB" d="M284.625,163.234c2.396-0.396-0.555,4.555,3,3
	C286.057,169.417,281.623,164.982,284.625,163.234z"/>
<path fill-rule="evenodd" clip-rule="evenodd" fill="#DAC4BB" d="M287.625,164.234C288.783,160.283,288.783,168.186,287.625,164.234
	L287.625,164.234z"/>
<path fill-rule="evenodd" clip-rule="evenodd" fill="#242E39" d="M215.625,165.234c0.729-0.823,3.009-1.208,5,0
	c-0.186,1.48-2.417,0.917-4,1c-0.333,0-0.667,0-1,0C215.625,165.901,215.625,165.567,215.625,165.234z"/>
<path fill-rule="evenodd" clip-rule="evenodd" fill="#B89883" d="M304.625,164.234c1.701-0.368,1.887,0.78,2,2
	c-0.851-0.184-0.943,0.39-1,1C304.453,167.073,304.781,165.411,304.625,164.234z"/>
<path fill-rule="evenodd" clip-rule="evenodd" fill="#242E39" d="M311.625,165.234C312.783,161.283,312.783,169.186,311.625,165.234
	L311.625,165.234z"/>
<path fill-rule="evenodd" clip-rule="evenodd" fill="#B89883" d="M227.625,167.234C227.827,164.239,231.778,168.19,227.625,167.234
	L227.625,167.234z"/>
<path fill-rule="evenodd" clip-rule="evenodd" fill="#B89883" d="M233.625,169.234c-4.951-0.324-3.009,2.157-9,3
	C223.761,166.651,232.37,167.004,233.625,169.234z"/>
<path fill-rule="evenodd" clip-rule="evenodd" fill="#242E39" d="M216.625,170.234c0-0.667,0-1.333,0-2c3.14,1.131,2.642-0.287,5,1
	c0.282,2.615-0.365,4.302-3,4c0.057-0.61,0.149-1.184,1-1c-0.221-0.779-0.837-1.163-2-1
	C217.809,170.384,217.235,170.291,216.625,170.234z"/>
<path fill-rule="evenodd" clip-rule="evenodd" fill="#242E39" d="M310.625,170.234C313.113,166.334,312.083,173.549,310.625,170.234
	L310.625,170.234z"/>
<path fill-rule="evenodd" clip-rule="evenodd" fill="#B89883" d="M315.625,169.234c2.939,3.006-3.776,4.841-4,8
	C309.27,174.812,314.759,171.752,315.625,169.234z"/>
<path fill-rule="evenodd" clip-rule="evenodd" fill="#DAC4BB" d="M216.625,170.234c0.61,0.057,1.184,0.149,1,1c0,0.333,0,0.667,0,1
	C216.846,172.014,216.462,171.397,216.625,170.234z"/>
<path fill-rule="evenodd" clip-rule="evenodd" fill="#7F6A5C" d="M239.625,174.234c-0.368-1.701,0.78-1.887,2-2
	c-0.184,0.851,0.39,0.943,1,1C242.463,174.406,240.802,174.078,239.625,174.234z"/>
<path fill-rule="evenodd" clip-rule="evenodd" fill="#DAC4BB" d="M285.625,173.234C288.185,170.31,281.864,177.532,285.625,173.234
	L285.625,173.234z"/>
<path fill-rule="evenodd" clip-rule="evenodd" fill="#242E39" d="M221.625,174.234C221.827,171.239,225.778,175.19,221.625,174.234
	L221.625,174.234z"/>
<path fill-rule="evenodd" clip-rule="evenodd" fill="#B89883" d="M247.625,173.234c0.667,0,1.333,0,2,0c0.467,2.134-1.429,1.904-3,2
	C246.815,174.425,247.628,174.237,247.625,173.234z"/>
<path fill-rule="evenodd" clip-rule="evenodd" fill="#242E39" d="M307.625,174.234C310.113,170.334,309.083,177.549,307.625,174.234
	L307.625,174.234z"/>
<path fill-rule="evenodd" clip-rule="evenodd" fill="#DAC4BB" d="M217.625,174.234c0.61,0.057,1.184,0.149,1,1
	c0.184,0.851-0.39,0.943-1,1C217.625,175.567,217.625,174.901,217.625,174.234z"/>
<path fill-rule="evenodd" clip-rule="evenodd" fill="#242E39" d="M249.625,194.234c-2.184-5.482-10.062-5.271-11-12
	c16.456,9.511,47.141,11.721,54-7c4.641,0.531-2.297,8.056,4,5c-3.603,9.164-14.541,15.244-22,21
	C271.028,198.161,257.96,195.82,249.625,194.234z"/>
<path fill-rule="evenodd" clip-rule="evenodd" fill="#242E39" d="M236.625,177.234C236.827,174.239,240.778,178.19,236.625,177.234
	L236.625,177.234z"/>
<path fill-rule="evenodd" clip-rule="evenodd" fill="#242E39" d="M304.625,179.234C304.827,176.239,308.778,180.19,304.625,179.234
	L304.625,179.234z"/>
<path fill-rule="evenodd" clip-rule="evenodd" fill="#B89883" d="M233.625,182.234c2.182-0.182,3.182,0.818,3,3
	C235.692,184.167,232.936,184.923,233.625,182.234z"/>
<path fill-rule="evenodd" clip-rule="evenodd" fill="#DAC4BB" d="M275.625,185.234c-0.333,0-0.667,0-1,0
	c-4.391,0.171-0.838-3.382,2-2C276.628,184.237,275.815,184.425,275.625,185.234z"/>
<path fill-rule="evenodd" clip-rule="evenodd" fill="#B89883" d="M235.625,189.234C236.783,185.283,236.783,193.186,235.625,189.234
	L235.625,189.234z"/>
<path fill-rule="evenodd" clip-rule="evenodd" fill="#B89883" d="M232.625,192.234C232.827,189.239,236.778,193.19,232.625,192.234
	L232.625,192.234z"/>
<path fill-rule="evenodd" clip-rule="evenodd" fill="#B89883" d="M227.625,198.234c0-0.333,0-0.667,0-1c1.611-0.428,3.356,3.729,1,4
	C228.57,199.956,227.343,199.85,227.625,198.234z"/>
<path fill-rule="evenodd" clip-rule="evenodd" fill="#B89883" d="M237.625,202.234C237.827,199.239,241.778,203.19,237.625,202.234
	L237.625,202.234z"/>
<path fill-rule="evenodd" clip-rule="evenodd" fill="#B89883" d="M255.625,208.234C255.827,205.239,259.778,209.19,255.625,208.234
	L255.625,208.234z"/>
<path fill-rule="evenodd" clip-rule="evenodd" fill="#B89883" d="M231.625,211.234c0.333,0,0.667,0,1,0c0,0.667,0,1.333,0,2
	C231.846,213.014,231.462,212.397,231.625,211.234z"/>
<path fill-rule="evenodd" clip-rule="evenodd" fill="#B89883" d="M236.625,224.234c0.779,0.221,1.163,0.837,1,2
	C236.846,226.014,236.462,225.397,236.625,224.234z"/>
<path fill-rule="evenodd" clip-rule="evenodd" fill="#DAC4BB" d="M327.625,146.234c0.81-0.19,0.997-1.003,2-1
	c-0.443,0.89-0.878,1.789-2,2C327.625,146.901,327.625,146.568,327.625,146.234z"/>
<path fill-rule="evenodd" clip-rule="evenodd" fill="#7F6A5C" d="M260.625,16.234c0.667,0,1.333,0,2,0c3.333,0,6.667,0,10,0
	c0.333,0,0.667,0,1,0c0.161,1.172,1.823,0.843,3,1c0.42,2.246,5.306,0.027,6,2c-2.087,1.58-5.26,2.074-9,2
	c0.257,2.077,4.394,0.273,5,2c-2.284,1.383-5.295,2.038-8,3c0.745,2.255,5.609,0.391,8,1c-0.111,2.555-3.349,1.985-6,2
	c16.73-0.52,31.105,4.945,36,19c-9.639-23.91-53.826-15.937-72-5c3.774-4.634,9.536-6.501,15-7c-4.806-8.318-13.614,0.784-22,5
	c-0.423-2.09,0.686-2.648,1-4c-2.319,0.319-3.839-0.161-5-1c-4.597,11.925-15.617,20.987-15,35c4.229-0.421,6.662-5.356,12-11
	c-4.79,8.384-6.146,16.408-9,25c0.562-5.439-3.038-10.881,1-14c-7.54,5.794-6.629,20.038-11,29c1.439-15.23,2.653-39.344,13-49
	c-0.87-2.954-1.497,2.32-4,1c3.643-10.691,9.83-18.837,19-24c0.294,2.378,2.706-1.111,3-2c1.833-1.167,3.386-2.614,5-4
	c1.989-1.344,4.761-1.906,7-3c1.163,0.163,1.779-0.221,2-1c0.667,0,1.333,0,2,0C254.117,17.726,258.175,17.785,260.625,16.234z
	 M272.625,28.234c-3.1-0.1-5.547,0.453-7,2C268.725,30.334,271.172,29.781,272.625,28.234z M239.625,31.234
	c-1.138,2.572-7.884,4.724-6,7C234.867,35.767,242.46,34.461,239.625,31.234z M219.625,39.234
	C218.668,43.388,222.62,39.437,219.625,39.234L219.625,39.234z M229.625,31.234C226.896,34.276,232.667,28.505,229.625,31.234
	L229.625,31.234z M242.625,26.234c1.229,2.435,6.021,0.115,7-1c-3.102-2.208,2.495-4.093,3-6
	C241.843,20.104,243.794,23.35,242.625,26.234z M256.625,20.234c-2.483-0.15-4.15,0.517-5,2
	C254.108,22.384,255.775,21.718,256.625,20.234z M251.625,24.234c1.89-0.443,6.027,1.36,5-2
	C254.845,22.787,252.472,22.748,251.625,24.234z M274.625,18.234c-1.786,0.004-5.817-2.693-7,0
	C269.411,18.23,273.442,20.927,274.625,18.234z M248.625,30.234c7.521,0.837,17.948-0.696,17-5
	C262.169,24.053,252.999,26.605,248.625,30.234z M231.625,34.234c5.396,0.429,5.684-7.475,5-5
	C235.128,31.071,232.452,31.728,231.625,34.234z"/>
<path fill-rule="evenodd" clip-rule="evenodd" fill="#B89883" d="M236.625,43.234c18.174-10.937,62.361-18.91,72,5
	c0,0.333,0,0.667,0,1c1.645,10.708-4.306,19.107,3,29c-1.008,2.213-3.442-2.463-7-1c0.314,2.352,4.74,0.593,4,4
	c-0.973,0.027-0.776,1.224-1,2c-5.849-3.673-8.493-5.012-16-6c0.169-2.168-3.547-0.453-5-1c0.04-2.931-5.939,0.598-1,0
	c-0.573,2.427-6.47-0.469-6,3c2.826,0.826,2.591-1.409,5-1c0,0.667,0,1.333,0,2c-4.909-0.576-7.37,1.297-8,5
	c-3.027-1.223,0.707-3.816,1-5c-4.23-0.23-2.266,5.735-8,4c0.918,2.749,2.481,4.853,4,7c0,0.333,0,0.667,0,1
	c0.454,4.212,4.729,4.604,6,8c-0.015-1.031-3.039-7.593-5-10c0-0.333,0-0.667,0-1c0-0.667,0-1.333,0-2
	c9.989-6.866,27.469-6.869,32,8c-6.165-4.655-18.18-10.183-28-5c0-0.667,0-1.333,0-2c0.044,5.404,19.752,8.537,28,10
	c2.423-0.578,2.224-3.776,3-6c4.762,2.241-2.816,5.484-2,10c-3.22-0.22-4.231,1.769-8,1c9.343,5.655,9.031-6.953,15-8
	c3.276,9.057,3.368,21.298,3,34c-2.256-4.377-0.82-0.448-5-2c-3.31,1.69-4.615,5.385-7,8c3.832,5.595,3.719,11.757-1,16
	c0.247,1.086,1.988,0.678,2,2c2.469-5.531,4.803-11.197,6-18c7.76,3.104-2.553,13.639,4,18c-4.475-0.141-2.874,5.792-5,8
	c-1.377-1.001,0.427-1.648-2-3c-2.995,0.658,0.956,2.138,0,4c-5.884-0.61-5.481-1.18-11,1c0.438,3.438-0.396,5.604-1,8
	c-1.85-0.15-0.613-3.387-2-4c-2.169-0.169-0.453,3.547-1,5c-1.794,0.127-2.109-1.225-4-1c3.839,6.746-6.696,7.751-9,14
	c-3.149-1.121-2.264-0.09-6,0c0.19-0.81,1.003-0.997,1-2c-2.838-1.382-6.391,2.171-2,2c-5.101,5.638-14.582-2.185-19,2
	c-2.496-0.504-3.34-2.66-6-3c0.19-0.81,1.003-0.997,1-2c-1.446-1.275-2.234,1.755-6,0c2.337-1.614-2.86-2.891-3-3
	c-3.087-6.158-3.199-10.067-5-15c2.052-0.948,2.771-3.229,4-5c-0.87-2.954-1.497,2.32-4,1c0.521-1.479,1.479-2.521,2-4
	c-0.658-2.995-2.138,0.956-4,0c2.001-5.825,3.755-0.723,7-4c-0.162-1.172-1.823-0.843-3-1c3.716-4.617,14.106-2.561,19-6
	c0.333,0,0.667,0,1,0c1.583,0.083,3.814-0.481,4,1c-3.469,0.198-7.687-0.354-8,3c10.014,2.325,13.018,0.75,22,2
	c0.136-3.469-5.066-1.601-5-5c1.333,0,2.667,0,4,0c1.313-1.2,1.573-0.39,3,0c3.813,1.187,6.949,3.05,11,4
	c1.131,8.067,2.756,9.48,6,15c-0.937-6.229-0.706-17.246,2-25c-5.242,1.779-2.279,0.344-7,1c-0.429-1.904-2.154-2.512-2-5
	c-6.44,3.833-21.682,10.184-26,4c-3.494,3.52-9.61,0.766-15,2c-1.382-4.048,2.17-3.163,2-6c-7.472-3.137-11.818,8.585-17,8
	c1.904,1.177,2.316,2.51,0,4c0.353,1.401,1.761,0.086,2-1c3.401,1.891-1.712,3.505-1,6c-1.615,0.282-1.722-0.945-3-1
	c-0.424,4.576-2.178,7.822-7,8c1.972,1.109,4.669,2.495,0,3c-0.296,2.63,3.88,0.787,3,4c-1.163-0.163-1.779,0.221-2,1
	c-2.751-0.895,2.33-4.059-3-3c-0.423-2.09,0.686-2.648,1-4c-0.804,0.529-1.624,1.043-3,1c2.249-2.367,0.732-6.608-3-6
	c1.051-6.775-3.789-2.906-1-9c-1.875,3.178-2.125,0.761-4-1c9.465-9.789-4.773-18.832-1-28c2.784-0.451-0.784,5.451,2,5
	c4.107-6.717-7.685-28.4,6-34c0.065,4.602,1.372,7.962,3,11c-1.23-0.437-2.054-1.28-2-3c-2.712,0.267,1.591,6.853,2,4
	c0.81,0.19,0.997,1.003,2,1c-4.233-3.259-0.492-14.628-5-15c-0.333,0-0.667,0-1,0c-0.31-1.357-2.504-0.83-4-1c0-0.333,0-0.667,0-1
	c2.854-8.592,4.21-16.616,9-25c-0.282-1.615,0.945-1.722,1-3c0.934-0.733,1.515-1.818,2-3c0-0.333,0-0.667,0-1
	c0.89-0.443,1.789-0.878,2-2c0-0.333,0-0.667,0-1c2.615-2.385,6.31-3.69,8-7C235.958,43.234,236.292,43.234,236.625,43.234z
	 M293.625,70.234c1.572,0.761,1.494,3.172,4,3c0.493-3.14-3.447-2.642-1-5c2.729-0.729,2.013,1.987,4,2
	c-2.172-4.828-4.325-9.675-8-13c1.686-2.94,4.494,3.12,6,0c-1.001-1.665,0.373-2.708-2-3c0.406-1.927,3.877-0.79,3-4
	c-3.414-2.916-4.283-0.042-3-7c-2.323-2.654-2.677,2.654-5,0c-0.224-1.891,1.127-2.207,1-4c-20.726-9.642-48.167-1.926-63,10
	c-0.04,6.929-1.925,9.295,2,8c-4.319,5.465-0.449,10.397-3,18c6.01-0.657,11.73-1.604,16-4c8.736,3.152,12.69,5.063,19,10
	c-0.272,2.062-4.428,0.238-4,3c3.236-0.431,8.649,1.316,9-2c-1.496-0.17-3.69,0.357-4-1c3.333,0,6.667,0,10,0
	C273.399,72.33,287.638,74.736,293.625,70.234z M303.625,74.234c-1.278-0.055-1.385-1.282-3-1
	C299.07,75.695,304.021,76.175,303.625,74.234z M221.625,118.234c2.403,0.552,4.518,1.254,1,4c3.832,2.452,8.215,5.243,10,7
	c11.485-0.187,13.983-18.012,24-23c0.299-1.966-1.35-1.983-2-3c2.846-1.011,3.298-7.972,7-5c-3.875,3.98-3.65,6.532-3,14
	c-5.293-1.293-5.642,2.358-7,5c3.458,0.792,4.222-1.112,6-2c2.013,6.546,10.918,3.354,14,0c-5.724-11.257,6.4-28.13-8-30
	C262.325,108.866,232.238,110.042,221.625,118.234z M259.625,90.234c2.13-10.064-14.872-18.944-24-12c5.35-0.016,11.067-0.401,14,2
	c-1.772,0.228-5.008-1.008-4,2c5.667,0.022,11.141,5.496,10,9c-0.057-0.61-0.149-1.184-1-1c-0.297,2.036-2.003,2.664-3,4
	c4.641,1.821-0.883,5.844-2,8c3.687-0.647,5.245-3.422,6-7c3.542,0.111-2.125,3.306,1,3c1.407-1.926,2.643-4.024,3-7
	C259.625,90.901,259.625,90.568,259.625,90.234z M252.625,102.234C251.125,104.335,257.736,95.079,252.625,102.234L252.625,102.234z
	 M285.625,99.234c0.502-4.836-4.862-3.804-7-6C275.659,97.178,282.332,98.396,285.625,99.234z M242.625,173.234
	c-0.61-0.057-1.184-0.149-1-1c-1.22,0.113-2.368,0.299-2,2C240.802,174.078,242.463,174.406,242.625,173.234z M300.625,157.234
	c-1.475-5.648,1.307-6.469,2-12c-5.25,0.75-6.495,5.505-8,10C296.716,155.81,297.479,157.713,300.625,157.234z M263.625,139.234
	c1.482-6.359-4.232-9.688-7-6c1.197,3.651,1.404,4.491,2,7C261.451,141.061,261.216,138.825,263.625,139.234z M240.625,138.234
	C241.709,132.93,237.587,137.053,240.625,138.234L240.625,138.234z M221.625,86.234c-0.306-1.212,2.889-3.448,3-1
	c-1.489,3.014-2.883,6.171,2,7c-0.514-4.113,2.903-3.327,1-7c3.569,2.329,6.197-3.389,10-4
	C231.439,83.025,220.286,78.54,221.625,86.234z M240.625,89.234c0-0.667,0-1.333,0-2c2.023-3.704,6.23,0.957,9-2
	c-3.595-4.043-14.567-4.119-17,1c1.767,3.465,4.962-0.292,7,2c0,0.333,0,0.667,0,1c-0.61,0.057-1.184,0.149-1,1
	c-0.333,0-0.667,0-1,0c-3.156-1.178-13.289,3.806-11,8c7.177-3.359,20.178-2.803,26-10c-2.672,0.578-6.248-2.958-8,0
	c3.606-0.409,1.371,1.826-1,1c-0.667,0-1.333,0-2,0C241.292,89.234,240.958,89.234,240.625,89.234z M233.625,79.234
	c-1.177,0.157-2.838-0.172-3,1c0.61,0.057,1.184,0.149,1,1c0.776-0.224,1.973-0.027,2-1
	C235.325,80.458,236.099,79.107,233.625,79.234z M238.625,79.234c-1.7-0.224-2.474,1.127,0,1
	C243.29,80.943,243.29,78.526,238.625,79.234z M239.625,97.234C243.778,98.191,239.827,94.239,239.625,97.234L239.625,97.234z
	 M293.625,101.234c-2.503,0.169-3.131-1.536-4-3c0.556,0.003,1.135-0.81,0-1c-0.057,0.61-0.149,1.184-1,1
	c-1.122,0.102-1.557-1.454-2,0C285.949,99.406,290.12,104.782,293.625,101.234z M302.625,100.234c0.667,0,1.333,0,2,0
	c0-0.667,0-1.333,0-2c-0.667,0-1.333,0-2,0C302.625,98.901,302.625,99.568,302.625,100.234z M286.625,102.234
	C280.83,99.35,283.993,104.702,286.625,102.234L286.625,102.234z M246.625,104.234C250.778,105.191,246.827,101.239,246.625,104.234
	L246.625,104.234z M296.625,107.234c-2.764-0.619-8.897-3.036-10-2C288.438,106.804,294.615,109.178,296.625,107.234z
	 M247.625,106.234C242.339,108.877,251.43,104.332,247.625,106.234L247.625,106.234z M294.625,132.234
	c11.011-2.832,9.827-12.395,16-19c-6.077-6.256-22.794-1.873-30-7c0.629,4.367,3.545,8.36,1,13c4.373,4.012,11.329,9.471,14,12
	C295.015,131.291,294.441,131.384,294.625,132.234z M241.625,108.234C240.886,109.606,244.043,103.743,241.625,108.234
	L241.625,108.234z M231.625,109.234C235.778,110.191,231.827,106.239,231.625,109.234L231.625,109.234z M234.625,109.234
	C238.778,110.191,234.827,106.239,234.625,109.234L234.625,109.234z M277.625,118.234c0.251-1.728-1.883-5.922-3-3
	C276.514,115.345,275.319,118.541,277.625,118.234z M275.625,127.234c0.186,1.481,2.417,0.917,4,1c-0.132-2.465-0.151-4.818,1-6
	c-4.43,0.429-6.332-1.667-7-5c-6.87,7.499-16.177-0.229-23,3c-0.022,2.356,1.723,2.944,1,6c8.858,1.521,14.962,6.239,23,1
	C274.958,127.234,275.292,127.234,275.625,127.234z M274.625,128.234c-0.059,4.191-1.433,3.091-2,8
	C276.009,136.884,276.693,129.726,274.625,128.234z M241.625,131.234c5.08-0.378,11.483-6.227,7-10
	C246.212,124.488,243.265,127.208,241.625,131.234z M287.625,128.234c-2.711-0.622-2.489-4.178-6-4
	C280.529,131,285.106,132.436,287.625,128.234z M282.625,132.234c-1.336-0.997-1.964-2.703-4-3c0.489,3.156-1.802,3.531-1,7
	c4.209,1.542,0.159-5.174,3-5C280.864,132.321,282.271,133.635,282.625,132.234z M218.625,136.234c2.454,0.802,5.767,1.718,6-2
	c0.396-2.396-4.555,0.555-3-3c-0.057-0.61-0.149-1.184-1-1C219.737,132.013,217.833,132.776,218.625,136.234z M265.625,132.234
	c0.043,1.376-0.471,2.196-1,3c4.217-0.169-0.017,1.536,0,3c4.281,1.224,6.674-4.583,4-7
	C268.065,133.313,267.065,133.353,265.625,132.234z M292.625,137.234c0.399-2.482-5.055-7.229-3-5
	C289.959,134.567,290.65,136.543,292.625,137.234z M232.625,141.234c4.927,0.593,4.278-4.389,6-7
	C235.595,135.538,232.123,136.399,232.625,141.234z M228.625,148.234C230.083,151.548,231.113,144.334,228.625,148.234
	L228.625,148.234z M224.625,158.234c4.12,1.701,1.423-7.39,0-3C226.181,155.495,225.318,157.428,224.625,158.234z M251.625,163.234
	c1.778,1.867,2.542-0.813,6,0C258.07,159.125,252.4,162.323,251.625,163.234z M252.625,154.234c-3.206,2.073-6.327,2.69-7,5
	c6.113-0.586,8.236,4.783,11-1C250.006,160.295,255.598,157.371,252.625,154.234z M279.625,160.234
	C280.783,164.186,280.783,156.283,279.625,160.234L279.625,160.234z M287.625,162.234c1.496-0.17,3.69,0.357,4-1
	c-1.987-0.013-1.271-2.729-4-2C287.625,160.234,287.625,161.234,287.625,162.234z M275.625,164.234c2.785,1.602,2.766-4.319,1-4
	C276.311,161.586,275.201,162.144,275.625,164.234z M244.625,163.234C248.778,164.19,244.827,160.239,244.625,163.234
	L244.625,163.234z M287.625,166.234c-3.555,1.555-0.604-3.396-3-3C281.623,164.982,286.057,169.417,287.625,166.234z
	 M287.625,164.234C288.783,168.186,288.783,160.283,287.625,164.234L287.625,164.234z M281.625,166.234c1.646,1.553,0.428,4.666-1,6
	c0.178-3.511-3.378-3.289-4-6c-2.322,0.293-4.687,2.513-4-2c-7.487,2.081-5.487,1.944-13,4c1.332,2.452,3.018-1.802,4,1
	c-1.951,1.049-3.994,2.006-6,3c0.304-2.333,2.135-4.309-1-5c0.144,3.144-2.564,3.436-5,4c0.297-2.036,2.003-2.664,3-4
	c-4.447-0.447-7.289,0.711-10,2c1.626,3.277-0.226,3.822,0,8c3.355,0.686,7.745-0.721,7,3c0.41-1.257,1.29-2.044,3-2
	c-1.301,1.332-0.615,3.019,1,4c0.719-2.631,5.916-3.79,3-7c1.78,0.598,4.153-2.931,5,0c0.004,2.671-3.16,2.173-3,5
	c1.862,0.956,3.342-2.995,4,0c-0.407,1.927-3.877,0.79-3,4c3.596-0.619,7.296-1.336,9,1c2.344-3.133,0.229-5.522,3-7
	c-1.119,1.44-1.078,2.44,1,3c-0.182-2.182,0.818-3.182,3-3c-0.109,1.337-1.874,5.513,0,3c0.908-2.995,9.407,1.757,6-5
	c-0.012,1.009-1.753,1.258-2,0C284.206,173.288,283.992,165.583,281.625,166.234z M285.625,173.234
	C281.864,177.532,288.185,170.31,285.625,173.234L285.625,173.234z M297.625,87.234c-1.405-5.411-10.984-1.589-14-3
	C285.586,87.301,294.526,88.629,297.625,87.234z"/>
<path fill-rule="evenodd" clip-rule="evenodd" fill="#B89883" d="M233.625,38.234c-1.884-2.276,4.862-4.428,6-7
	C242.46,34.461,234.867,35.767,233.625,38.234z"/>
<path fill-rule="evenodd" clip-rule="evenodd" fill="#242E39" d="M212.625,52.234c2.503,1.32,3.13-3.954,4-1
	c-10.347,9.656-11.561,33.77-13,49c4.371-8.962,3.46-23.206,11-29c-4.038,3.119-0.438,8.561-1,14c0,0.333,0,0.667,0,1
	c0.31,1.357,2.504,0.83,4,1c0.333,0,0.667,0,1,0c2.275,3.057-1.805,0.506-5,2c-3.54,6.042-2.981,16.329-3,25
	c-2.909-1.433-1.125-0.767-1,2c-2.774-3.199-3.226,3.199-6,0c0.473-3.14-2.691-2.642-3-5c-0.211-1.122-1.11-1.557-2-2
	c-0.042-3.292-1.688-4.979-1-9c0.973-0.027,0.776-1.224,1-2c0.615-0.89,1.208-1.789,0-2c-0.101-3.101,1.223-4.777,2-7
	c0.973-0.027,0.776-1.224,1-2c-0.826-2.826,1.409-2.591,1-5c0.973-0.027,0.776-1.224,1-2c0-0.333,0-0.667,0-1
	c0.973-0.027,0.776-1.224,1-2c0-1.667,0-3.333,0-5c0-0.667,0-1.333,0-2c0.973-0.027,0.776-1.224,1-2c0.19-0.81,1.003-0.997,1-2
	c-0.826-2.826,1.409-2.591,1-5c0-0.333,0-0.667,0-1c1.85-0.15,0.614-3.386,2-4c0-0.333,0-0.667,0-1c0.333,0,0.667,0,1,0
	C211.11,54.053,211.691,52.967,212.625,52.234z M203.625,104.234C202.78,110.149,204.198,100.223,203.625,104.234L203.625,104.234z
	 M207.625,109.234C208.783,113.186,208.783,105.283,207.625,109.234L207.625,109.234z"/>
<path fill-rule="evenodd" clip-rule="evenodd" fill="#B89883" d="M229.625,31.234C232.667,28.505,226.896,34.276,229.625,31.234
	L229.625,31.234z"/>
<path fill-rule="evenodd" clip-rule="evenodd" fill="#B89883" d="M231.625,28.234c0.61-0.057,1.184-0.149,1-1s0.39-0.943,1-1
	c0.333,0,0.667,0,1,0C234.331,27.123,231.919,30.613,231.625,28.234z"/>
<path fill-rule="evenodd" clip-rule="evenodd" fill="#242E39" d="M276.625,17.234c1.333,0,2.667,0,4,0c0.667,0,1.333,0,2,0
	s1.333,0,2,0c0.027,0.973,1.224,0.776,2,1c4.422,0.578,7.261,2.739,10,5c0.212,1.122,1.109,1.557,2,2c0.677,2.323,3.323,2.677,4,5
	c1.497,1.502,1.789,4.211,4,5c0.529,0.804,1.043,1.624,1,3c-1.763,5.366,6.813,8.323,8,14c3.189,6.492,5.017,14.04,2,22
	c-5.11-6.223-3.005-19.662-9-25c0-0.333,0-0.667,0-1c-4.895-14.055-19.27-19.52-36-19c2.651-0.015,5.889,0.555,6-2
	c-2.391-0.609-7.255,1.255-8-1c2.705-0.962,5.716-1.617,8-3c-0.606-1.727-4.743,0.077-5-2c3.74,0.074,6.913-0.42,9-2
	C281.931,17.262,277.045,19.48,276.625,17.234z"/>
<path fill-rule="evenodd" clip-rule="evenodd" fill="#B89883" d="M265.625,25.234c0.948,4.304-9.479,5.837-17,5
	C252.999,26.605,262.169,24.053,265.625,25.234z M261.625,27.234C265.778,28.191,261.827,24.239,261.625,27.234L261.625,27.234z
	 M254.625,29.234c2.874,0.207,5.08-0.253,6-2C258.563,27.84,253.678,25.621,254.625,29.234z"/>
<path fill-rule="evenodd" clip-rule="evenodd" fill="#B89883" d="M236.625,29.234c0.684-2.475,0.396,5.429-5,5
	C232.452,31.728,235.128,31.071,236.625,29.234z"/>
<path fill-rule="evenodd" clip-rule="evenodd" fill="#7F6A5C" d="M227.625,50.234c1.755-3.245,5.001-4.999,8-7
	C233.935,46.544,230.24,47.85,227.625,50.234z"/>
<path fill-rule="evenodd" clip-rule="evenodd" fill="#7F6A5C" d="M225.625,53.234c0.443-0.89,0.878-1.789,2-2
	C227.414,52.356,226.515,52.791,225.625,53.234z"/>
<path fill-rule="evenodd" clip-rule="evenodd" fill="#7F6A5C" d="M223.625,57.234c-0.044-1.71,0.743-2.59,2-3
	C225.14,55.416,224.559,56.501,223.625,57.234z"/>
<path fill-rule="evenodd" clip-rule="evenodd" fill="#242E39" d="M222.625,60.234c-5.338,5.644-7.771,10.579-12,11
	c-0.617-14.013,10.403-23.075,15-35c1.161,0.839,2.681,1.319,5,1c-0.314,1.352-1.423,1.91-1,4c8.386-4.216,17.194-13.318,22-5
	c-5.464,0.499-11.226,2.366-15,7c-0.333,0-0.667,0-1,0c-2.999,2.001-6.245,3.755-8,7c0,0.333,0,0.667,0,1
	c-1.122,0.211-1.557,1.11-2,2c0,0.333,0,0.667,0,1c-1.257,0.41-2.044,1.29-2,3C223.57,58.513,222.343,58.619,222.625,60.234z
	 M220.625,53.234c-3.827,1.862-5.013,11.624-5,14C218.884,64.16,218.836,57.778,220.625,53.234z"/>
<path fill-rule="evenodd" clip-rule="evenodd" fill="#7F6A5C" d="M215.625,67.234c-0.013-2.376,1.173-12.138,5-14
	C218.836,57.778,218.884,64.16,215.625,67.234z"/>
<path fill-rule="evenodd" clip-rule="evenodd" fill="#DAC4BB" d="M274.625,81.234c-3.333,0-6.667,0-10,0c0.31,1.357,2.504,0.83,4,1
	c-0.351,3.316-5.764,1.569-9,2c-0.428-2.762,3.728-0.938,4-3c-6.31-4.937-10.264-6.848-19-10c-4.27,2.396-9.99,3.343-16,4
	c2.551-7.603-1.319-12.535,3-18c-3.925,1.295-2.04-1.071-2-8c14.833-11.926,42.274-19.642,63-10c0.127,1.793-1.224,2.109-1,4
	c2.323,2.654,2.677-2.654,5,0c-1.283,6.958-0.414,4.084,3,7c0.877,3.21-2.594,2.073-3,4c2.373,0.292,0.999,1.335,2,3
	c-1.506,3.12-4.314-2.94-6,0c3.675,3.325,5.828,8.172,8,13c-1.987-0.013-1.271-2.729-4-2c-2.447,2.358,1.493,1.86,1,5
	c-2.506,0.172-2.428-2.239-4-3C287.638,74.736,273.399,72.33,274.625,81.234z M295.625,51.234
	C296.783,55.186,296.783,47.283,295.625,51.234L295.625,51.234z M235.625,60.234C233.208,63.589,238.979,57.817,235.625,60.234
	L235.625,60.234z"/>
<path fill-rule="evenodd" clip-rule="evenodd" fill="#7F6A5C" d="M252.625,102.234C257.736,95.079,251.125,104.335,252.625,102.234
	L252.625,102.234z"/>
<path fill-rule="evenodd" clip-rule="evenodd" fill="#DAC4BB" d="M263.625,85.234c14.4,1.87,2.276,18.743,8,30
	c-3.082,3.354-11.987,6.546-14,0c-1.778,0.888-2.542,2.792-6,2c1.358-2.642,1.707-6.293,7-5c-0.65-7.468-0.875-10.02,3-14
	c-3.702-2.972-4.154,3.989-7,5c0.65,1.017,2.299,1.034,2,3c-10.017,4.988-12.515,22.813-24,23c-1.785-1.757-6.168-4.548-10-7
	c3.518-2.746,1.403-3.448-1-4C232.238,110.042,262.325,108.866,263.625,85.234z M261.625,115.234c1.453-0.547,5.168,1.168,5-1
	C264.533,112.043,262.867,112.175,261.625,115.234z"/>
<path fill-rule="evenodd" clip-rule="evenodd" fill="#7F6A5C" d="M273.625,92.234c1.086,0.248,0.679,1.988,2,2
	c0.424-2.09-0.686-2.648-1-4c1.961,2.407,4.985,8.969,5,10C278.354,96.838,274.079,96.447,273.625,92.234z"/>
<path fill-rule="evenodd" clip-rule="evenodd" fill="#7F6A5C" d="M275.625,185.234c3.736-0.09,2.851-1.121,6,0
	c2.304-6.249,12.839-7.254,9-14c1.891-0.225,2.206,1.127,4,1c0.547-1.453-1.169-5.169,1-5c1.387,0.613,0.15,3.85,2,4
	c0.604-2.396,1.438-4.563,1-8c5.519-2.18,5.116-1.61,11-1c0.956-1.862-2.995-3.342,0-4c2.427,1.352,0.623,1.999,2,3
	c2.126-2.208,0.525-8.141,5-8c-6.553-4.361,3.76-14.896-4-18c-1.197,6.803-3.531,12.469-6,18c-0.012-1.322-1.753-0.914-2-2
	c4.719-4.243,4.832-10.405,1-16c2.385-2.615,3.69-6.31,7-8c4.18,1.552,2.744-2.377,5,2c0.368-12.702,0.276-24.943-3-34
	c-5.969,1.047-5.657,13.655-15,8c3.769,0.769,4.78-1.22,8-1c-0.816-4.516,6.762-7.759,2-10c-0.776,2.224-0.577,5.422-3,6
	c-8.248-1.463-27.956-4.596-28-10c0,0.667,0,1.333,0,2c9.82-5.183,21.835,0.345,28,5c-4.531-14.869-22.011-14.866-32-8
	c0,0.667,0,1.333,0,2c-0.973,0.027-0.776,1.224-1,2c-1.519-2.147-3.082-4.251-4-7c5.734,1.735,3.77-4.23,8-4
	c-0.293,1.184-4.027,3.777-1,5c0.63-3.703,3.091-5.576,8-5c0-0.667,0-1.333,0-2c0.667,0,1.333,0,2,0c1.419,0.086,2.832,0.165,3-1
	c0.667,0,1.333,0,2,0c7.507,0.988,10.151,2.327,16,6c0.224-0.776,0.027-1.973,1-2c0.74-3.407-3.686-1.648-4-4
	c3.558-1.463,5.992,3.213,7,1c-7.306-9.893-1.355-18.292-3-29c5.995,5.338,3.89,18.777,9,25c3.017-7.96,1.189-15.508-2-22
	c5.507,5.493,11.465,10.535,14,19c-0.333,0-0.667,0-1,0c0.572,5.619-0.38,6.546,2,10c0.443-0.89,0.878-1.789,2-2
	c-0.113,7.271,0.894,8.105,1,14c-2.396-0.396,0.555,4.555-3,3c-1.107-4.226,2.354-13.021-2-14c-0.754,0.07,4.439,13.204-2,13
	c-0.083-4.917-2.733-7.267-7-8c0.132-2.465,0.151-4.818-1-6c-2.409-0.409-2.174,1.826-5,1c-0.566-1.781-2.78-0.144-1,0
	c-0.364,3.364,4.333,1.667,6,3c-0.855,11.189,1.841,18.826,2,29c0.81-0.19,0.997-1.003,2-1c0.658-1.33,0.544-4.468,0-7
	c3.82,1.248-0.167,4.099,2,7c0.087,1.564,5.963-1.914,5,3c1.177-0.3,2.511-5.295,4-2c-0.333,0-0.667,0-1,0
	c-1.172,0.162-0.844,1.823-1,3c-1.615,0.282-1.722-0.945-3-1c-5.791,5.179-4.607,21.067-2,29c1.987-0.013,1.271-2.729,4-2
	c0.163,1.163-0.221,1.779-1,2c-1.003-0.003-1.19,0.81-2,1c-1.163-0.163-1.779,0.221-2,1c-0.767,5.799,0.679,7.777-1,12
	c-1.484,0.437,0.395,1.28,0,3c-1.313,1.2-1.572,0.39-3,0c1.283,1.314,1.283,3.687,0,5c-1.165,0.168-1.086,1.581-1,3
	c-4.118,10.548-10.109,19.225-17,27c-1.086,0.247-0.679,1.988-2,2c3.839-7.827,10.459-12.875,13-22c-1.757,0.91-1.829,3.504-3,5
	c-5.56,2.226-19.156,4.757-20,15c3.876,9.334-20.202,15.462-25,26c0.691,1.975,2.667,2.666,5,3c-2.678,3.234-13.899,6.634-17,0
	c11.56-5.044,2.528-21.995-6-16c-3.766-3.134-11.419-9.088-19-8c-0.851,0.184-0.943-0.39-1-1c2.356-0.271,0.611-4.428-1-4
	c0,0.333,0,0.667,0,1c-3.124-2.543-4.179-7.155-6-11c0-0.333,0-0.667,0-1c0.086-1.419,0.165-2.832-1-3c-0.839-1.161-1.319-2.681-1-5
	c0.086-1.419,0.165-2.832-1-3c0.184-0.851-0.39-0.943-1-1c0-0.667,0-1.333,0-2c0-0.333,0-0.667,0-1c1.163-0.163,1.779,0.221,2,1
	c-0.851-0.184-0.943,0.39-1,1c2.635,0.302,3.282-1.385,3-4c-2.358-1.287-1.86,0.131-5-1c0-0.667,0-1.333,0-2
	c1.583-0.083,3.814,0.48,4-1c-1.991-1.208-4.271-0.823-5,0c-0.973-0.027-0.776-1.224-1-2c0-0.333,0-0.667,0-1
	c-0.282-1.615,0.945-1.722,1-3c-3.629,0.983-0.84-5.249-4-2c0.003-1.003-0.81-1.19-1-2c1.122-0.102,1.557,1.454,2,0
	c-3.526-2.863-2.347-4.265-4-9c-1,0-2,0-3,0c4.698-6.183,6.075-19.594-1-25c0.086-1.419,0.165-2.832-1-3c0-0.667,0-1.333,0-2
	c2.774,3.199,3.226-3.199,6,0c-0.125-2.767-1.909-3.433,1-2c0.019-8.671-0.54-18.958,3-25c3.195-1.494,7.275,1.057,5-2
	c4.508,0.372,0.767,11.741,5,15c-1.003,0.003-1.19-0.81-2-1c0-0.333,0-0.667,0-1c-1.628-3.038-2.935-6.398-3-11
	c-13.685,5.6-1.893,27.283-6,34c-2.784,0.451,0.784-5.451-2-5c-3.773,9.168,10.465,18.211,1,28c1.875,1.761,2.125,4.178,4,1
	c-2.789,6.094,2.051,2.225,1,9c3.732-0.608,5.249,3.633,3,6c1.376,0.043,2.196-0.471,3-1c-0.314,1.352-1.423,1.91-1,4
	c5.33-1.059,0.249,2.105,3,3c0.221-0.779,0.837-1.163,2-1c0.88-3.213-3.296-1.37-3-4c4.669-0.505,1.972-1.891,0-3
	c4.822-0.178,6.576-3.424,7-8c1.278,0.055,1.385,1.282,3,1c-0.712-2.495,4.401-4.109,1-6c-0.239,1.086-1.647,2.401-2,1
	c2.316-1.49,1.904-2.823,0-4c5.182,0.585,9.528-11.137,17-8c0.17,2.837-3.382,1.952-2,6c5.39-1.234,11.506,1.52,15-2
	c4.318,6.184,19.56-0.167,26-4c-0.154,2.488,1.571,3.096,2,5c4.721-0.656,1.758,0.779,7-1c-2.706,7.754-2.937,18.771-2,25
	c-3.244-5.52-4.869-6.933-6-15c-4.051-0.95-7.187-2.813-11-4c7.145-0.811,8.998,3.668,15,4c-0.862-4.137-5.106-4.894-7-8
	c-2.96,4.388-10.726-0.586-16,3c1.453,0.547,5.169-1.168,5,1c-1.333,0-2.667,0-4,0c-0.333,0-0.667,0-1,0c0.45-1.633-5.451-1.633-5,0
	c-1,0-2,0-3,0c-0.186-1.481-2.417-0.917-4-1c-4.162-4.357-9.626-0.58-15-1c0.945-6.254-8.309-0.389-8,8
	c3.914-5.753,12.262-7.071,22-7c-4.894,3.439-15.284,1.383-19,6c1.177,0.157,2.838-0.172,3,1c-3.245,3.277-4.999-1.825-7,4
	c1.862,0.956,3.342-2.995,4,0c-0.521,1.479-1.479,2.521-2,4c2.503,1.32,3.13-3.954,4-1c-1.229,1.771-1.948,4.052-4,5
	c1.801,4.933,1.913,8.842,5,15c0.14,0.109,5.337,1.386,3,3c3.766,1.755,4.554-1.275,6,0c0.003,1.003-0.81,1.19-1,2
	c2.66,0.34,3.504,2.496,6,3c4.418-4.185,13.899,3.638,19-2C274.958,185.234,275.292,185.234,275.625,185.234z M286.625,89.234
	c1.304,5.363,8.294,5.04,14,6C298.772,90.42,293.505,89.021,286.625,89.234z M274.625,201.234c7.459-5.756,18.397-11.836,22-21
	c-6.297,3.056,0.641-4.469-4-5c-6.859,18.721-37.544,16.511-54,7c0.938,6.729,8.816,6.518,11,12
	C257.96,195.82,271.028,198.161,274.625,201.234z M320.625,77.234c4.447,0.114,1.483-7.184,4-9c2.306-0.306,1.111,2.889,3,3
	c-0.275-5.391-4.38-6.954-7-10C320.316,65.888,323.021,71.624,320.625,77.234z M323.625,80.234
	C322.986,90.646,326.355,78.701,323.625,80.234L323.625,80.234z M320.625,82.234C321.783,86.186,321.783,78.283,320.625,82.234
	L320.625,82.234z M300.625,85.234C303.749,88.499,302.307,81.697,300.625,85.234L300.625,85.234z M321.625,126.234
	C319.208,129.589,324.979,123.817,321.625,126.234L321.625,126.234z M322.625,134.234c-0.553-1.78-0.514-4.153-2-5
	C320.478,131.715,320.438,134.087,322.625,134.234z M212.625,143.234c-1.567-2.471-0.105-13.177-2-12
	C211.953,136.567,207.684,143.029,212.625,143.234z M320.625,144.234c-4.192-0.526-3.963,3.37-5,6c3.804,1.47,0.196-4.47,4-3
	c0.547,1.453-1.169,5.168,1,5c-1.276-3.922,2.736-3.353,4-2c-1.894-5.986,0.129-11.929-3-15
	C320.236,138.045,318.981,140.984,320.625,144.234z M317.625,154.234C321.778,155.19,317.827,151.239,317.625,154.234
	L317.625,154.234z M228.625,163.234C231.268,168.52,226.722,159.429,228.625,163.234L228.625,163.234z M314.625,164.234
	c1.721,0.054,2.563-0.77,3-2C315.904,162.181,315.062,163.004,314.625,164.234z M305.625,167.234c0.057-0.61,0.149-1.184,1-1
	c-0.113-1.22-0.299-2.368-2-2C304.781,165.411,304.453,167.073,305.625,167.234z M311.625,165.234
	C312.783,169.186,312.783,161.283,311.625,165.234L311.625,165.234z M227.625,167.234
	C231.778,168.19,227.827,164.239,227.625,167.234L227.625,167.234z M224.625,172.234c5.991-0.843,4.049-3.324,9-3
	C232.37,167.004,223.761,166.651,224.625,172.234z M310.625,170.234C312.083,173.549,313.113,166.334,310.625,170.234
	L310.625,170.234z M311.625,177.234c0.224-3.159,6.939-4.994,4-8C314.759,171.752,309.27,174.812,311.625,177.234z M221.625,174.234
	C225.778,175.19,221.827,171.239,221.625,174.234L221.625,174.234z M307.625,174.234
	C309.083,177.549,310.113,170.334,307.625,174.234L307.625,174.234z M231.625,181.234c0.241-2.578,1.721,1.373,4,0
	c-3.133-1.318-1.14-6.723-4-5C235.478,177.358,227.772,180.11,231.625,181.234z M236.625,177.234
	C240.778,178.19,236.827,174.239,236.625,177.234L236.625,177.234z M300.625,177.234
	C306.932,178.136,298.883,176.985,300.625,177.234L300.625,177.234z M304.625,179.234
	C308.778,180.19,304.827,176.239,304.625,179.234L304.625,179.234z M236.625,185.234c0.182-2.182-0.818-3.182-3-3
	C232.936,184.923,235.692,184.167,236.625,185.234z M235.625,189.234C236.783,193.186,236.783,185.283,235.625,189.234
	L235.625,189.234z M232.625,192.234C236.778,193.19,232.827,189.239,232.625,192.234L232.625,192.234z M237.625,202.234
	C241.778,203.19,237.827,199.239,237.625,202.234L237.625,202.234z M255.625,208.234
	C259.778,209.19,255.827,205.239,255.625,208.234L255.625,208.234z M245.625,142.234
	C246.783,146.186,246.783,138.283,245.625,142.234L245.625,142.234z"/>
<path fill-rule="evenodd" clip-rule="evenodd" fill="#DAC4BB" d="M221.625,101.234c-0.409,2.853-4.712-3.733-2-4
	c-0.054,1.72,0.77,2.563,2,3C221.625,100.568,221.625,100.901,221.625,101.234z"/>
<path fill-rule="evenodd" clip-rule="evenodd" fill="#B89883" d="M229.625,202.234c7.581-1.088,15.234,4.866,19,8
	c8.528-5.995,17.56,10.956,6,16c3.101,6.634,14.322,3.234,17,0c-2.333-0.334-4.309-1.025-5-3c4.798-10.538,28.876-16.666,25-26
	c0.844-10.243,14.44-12.774,20-15c1.171-1.496,1.243-4.09,3-5c-2.541,9.125-9.161,14.173-13,22c-1.135,0.19-0.556,1.003,0,1
	c-0.86,0.807-0.594,2.739-2,3c0-0.333,0-0.667,0-1c2.009-2.333-0.442-2.333-1,0c0,0.333,0,0.667,0,1c-3.936-1.602-0.348,4.318-3,4
	c0.19,1.135,1.003,0.556,1,0c0.333,0,0.667,0,1,0c-3.801,13.532-18.915,15.751-27,25c-8.124-1.124-2.694,0.487-9.319,0.862
	c0.658-1.342-6.543,0.275-4.681,0.138c-0.793-2.207-4.742,3.051-5.042,0.351c-1.759,0.241,0.167,0.666-3.046-0.751
	c-2.081-0.586-2.145-1.701-3.913-2.6c-0.35,1.127-0.458-0.301-2.458,0.517c-1.958,0.517-1.715-0.249-3.542-0.517
	c0-0.333,0-0.667,0-1c2.382,2.475,1.642-2.597,6-1c-6.21-3.79-7.616-12.384-12-18C232.487,206.706,229.763,205.763,229.625,202.234z
	 M247.625,227.234C244.896,230.276,250.667,224.505,247.625,227.234L247.625,227.234z"/>
<path fill-rule="evenodd" clip-rule="evenodd" fill="#242E39" d="M259.625,90.234c0,0.333,0,0.667,0,1c-0.779,0.221-1.163,0.837-1,2
	C255.91,93.515,259.644,87.258,259.625,90.234z"/>
<path fill-rule="evenodd" clip-rule="evenodd" fill="#7F6A5C" d="M259.625,90.234c0.019-2.976-3.715,3.28-1,3
	c-0.163-1.163,0.221-1.779,1-2c-0.357,2.976-1.593,5.074-3,7c-3.125,0.306,2.542-2.889-1-3c0-0.333,0-0.667,0-1c0-0.667,0-1.333,0-2
	c0-0.333,0-0.667,0-1c1.141-3.504-4.333-8.978-10-9c-1.008-3.008,2.228-1.772,4-2c-2.933-2.401-8.65-2.016-14-2
	C244.753,71.29,261.755,80.17,259.625,90.234z"/>
<path fill-rule="evenodd" clip-rule="evenodd" fill="#7F6A5C" d="M237.625,90.234c-1.657,2.01-6.576,0.758-7,4
	c6.026-2.039,10.913,0.453,15-4c-0.776-0.224-1.973-0.027-2-1c2.371,0.826,4.606-1.409,1-1c1.752-2.958,5.328,0.578,8,0
	c-5.822,7.197-18.823,6.641-26,10C224.336,94.041,234.469,89.056,237.625,90.234z"/>
<path fill-rule="evenodd" clip-rule="evenodd" fill="#DAC4BB" d="M286.625,98.234c0.443-1.454,0.878,0.102,2,0
	c0.851,0.184,0.943-0.39,1-1c1.135,0.19,0.556,1.003,0,1c0.869,1.464,1.497,3.169,4,3C290.12,104.782,285.949,99.406,286.625,98.234
	z"/>
<path fill-rule="evenodd" clip-rule="evenodd" fill="#7F6A5C" d="M286.625,102.234C283.993,104.702,280.83,99.35,286.625,102.234
	L286.625,102.234z"/>
<path fill-rule="evenodd" clip-rule="evenodd" fill="#7F6A5C" d="M286.625,105.234c1.103-1.036,7.236,1.381,10,2
	C294.615,109.178,288.438,106.804,286.625,105.234z"/>
<path fill-rule="evenodd" clip-rule="evenodd" fill="#DAC4BB" d="M247.625,106.234C251.43,104.332,242.339,108.877,247.625,106.234
	L247.625,106.234z"/>
<path fill-rule="evenodd" clip-rule="evenodd" fill="#DAC4BB" d="M333.625,118.234c0,2.333,0,4.667,0,7
	c-3.609,3.066,0.271-3.446-1-7C332.958,118.234,333.292,118.234,333.625,118.234z"/>
<path fill-rule="evenodd" clip-rule="evenodd" fill="#B89883" d="M330.625,143.234c-2.729-0.729-2.013,1.987-4,2
	c-2.607-7.933-3.791-23.821,2-29c1.278,0.055,1.385,1.282,3,1c0.156-1.177-0.172-2.838,1-3c0,1.333,0,2.667,0,4
	c1.271,3.554-2.609,10.066,1,7c0,1,0,2,0,3c0.547,1.453-1.169,5.168,1,5c-0.521,1.479-1.479,2.521-2,4c-0.973,0.027-0.776,1.224-1,2
	C332.049,141.325,330.939,141.882,330.625,143.234z M331.625,136.234c-2.352-2.039,2.854-9.125,0-8
	C331.627,132.005,325.807,134.803,331.625,136.234z M328.625,123.234C327.134,130.69,329.335,119.683,328.625,123.234
	L328.625,123.234z"/>
<path fill-rule="evenodd" clip-rule="evenodd" fill="#DAC4BB" d="M331.625,128.234c2.854-1.125-2.352,5.961,0,8
	C325.807,134.803,331.627,132.005,331.625,128.234z"/>
<path fill-rule="evenodd" clip-rule="evenodd" fill="#7F6A5C" d="M274.625,127.234c-8.038,5.239-14.142,0.521-23-1
	c0.723-3.056-1.022-3.644-1-6c6.823-3.229,16.13,4.499,23-3c0.668,3.333,2.57,5.429,7,5c-1.151,1.182-1.132,3.535-1,6
	c-1.583-0.083-3.814,0.481-4-1c1.419,0.086,2.832,0.165,3-1c-3.571-1.096-3.963-5.371-8-6c-2.697,0.969-3.882,3.452-7,4
	c-3.066-1.268-5.262-3.405-8-5c-1.446,1.554-2.103,3.897-3,6c6.238-0.571,8.358,2.976,13,4
	C267.043,127.595,272.133,124.486,274.625,127.234z"/>
<path fill-rule="evenodd" clip-rule="evenodd" fill="#DAC4BB" d="M280.625,131.234c-2.841-0.174,1.209,6.542-3,5
	c-0.802-3.469,1.489-3.844,1-7c2.036,0.297,2.664,2.003,4,3C282.271,133.635,280.864,132.321,280.625,131.234z"/>
<path fill-rule="evenodd" clip-rule="evenodd" fill="#DAC4BB" d="M289.625,132.234c-2.055-2.229,3.399,2.518,3,5
	C290.65,136.543,289.959,134.567,289.625,132.234z"/>
<path fill-rule="evenodd" clip-rule="evenodd" fill="#242E39" d="M258.625,145.234c-0.333,0-0.667,0-1,0
	c-9.738-0.071-18.086,1.247-22,7c-0.309-8.389,8.945-14.254,8-8C248.999,144.654,254.463,140.877,258.625,145.234z"/>
<path fill-rule="evenodd" clip-rule="evenodd" fill="#B89883" d="M228.625,163.234C226.722,159.429,231.268,168.52,228.625,163.234
	L228.625,163.234z"/>
<path fill-rule="evenodd" clip-rule="evenodd" fill="#DAC4BB" d="M281.625,176.234c0.247,1.258,1.988,1.009,2,0
	c3.407,6.757-5.092,2.005-6,5c-1.874,2.513-0.109-1.663,0-3c-2.182-0.182-3.182,0.818-3,3c-2.078-0.56-2.119-1.56-1-3
	c-2.771,1.478-0.656,3.867-3,7c-1.704-2.336-5.404-1.619-9-1c-0.877-3.21,2.593-2.073,3-4c-0.658-2.995-2.138,0.956-4,0
	c-0.16-2.827,3.004-2.329,3-5c-0.847-2.931-3.22,0.598-5,0c2.916,3.21-2.281,4.369-3,7c-1.615-0.981-2.301-2.668-1-4
	c-1.71-0.044-2.59,0.743-3,2c0.745-3.721-3.645-2.314-7-3c-0.226-4.178,1.626-4.723,0-8c2.711-1.289,5.553-2.447,10-2
	c-0.997,1.336-2.703,1.964-3,4c2.436-0.564,5.144-0.856,5-4c3.135,0.691,1.304,2.667,1,5c2.006-0.994,4.049-1.951,6-3
	c-0.982-2.802-2.668,1.452-4-1c7.513-2.056,5.513-1.919,13-4c-0.687,4.513,1.678,2.293,4,2c0.622,2.711,4.178,2.489,4,6
	c1.428-1.334,2.646-4.447,1-6C283.992,165.583,284.206,173.288,281.625,176.234z M246.625,175.234c1.571-0.096,3.467,0.134,3-2
	c-0.667,0-1.333,0-2,0C247.628,174.237,246.815,174.425,246.625,175.234z"/>
<path fill-rule="evenodd" clip-rule="evenodd" fill="#B89883" d="M231.625,176.234c2.86-1.723,0.867,3.682,4,5
	c-2.279,1.373-3.759-2.578-4,0C227.772,180.11,235.478,177.358,231.625,176.234z"/>
<path fill-rule="evenodd" clip-rule="evenodd" fill="#B89883" d="M300.625,177.234C298.883,176.985,306.932,178.136,300.625,177.234
	L300.625,177.234z"/>
<path fill-rule="evenodd" clip-rule="evenodd" fill="#7F6A5C" d="M298.625,202.234c0.558-2.333,3.009-2.333,1,0
	C299.292,202.234,298.958,202.234,298.625,202.234z"/>
<path fill-rule="evenodd" clip-rule="evenodd" fill="#7F6A5C" d="M298.625,203.234c0,0.333,0,0.667,0,1c0.282,1.615-0.945,1.722-1,3
	c-0.333,0-0.667,0-1,0c0.003,0.556-0.81,1.135-1,0C298.277,207.553,294.689,201.633,298.625,203.234z"/>
<path fill-rule="evenodd" clip-rule="evenodd" fill="#7F6A5C" d="M232.625,210.234c4.384,5.616,5.79,14.21,12,18
	c-4.358-1.597-3.618,3.475-6,1c0.043-1.377-0.471-2.195-1-3c0.163-1.163-0.221-1.779-1-2c0-0.667,0-1.333,0-2
	c2.511-0.362-1.776-7.372-2-5c-1.342-0.658-1.862-2.138-2-4c0-0.667,0-1.333,0-2C232.625,210.901,232.625,210.567,232.625,210.234z
	 M237.625,222.234C239.169,228.012,241.839,225.343,237.625,222.234L237.625,222.234z"/>
<path fill-rule="evenodd" clip-rule="evenodd" fill="#242E39" d="M234.625,217.234c0.224-2.372,4.511,4.638,2,5
	c-0.779-0.221-1.163-0.837-1-2s-0.221-1.779-1-2C234.625,217.901,234.625,217.567,234.625,217.234z"/>
<path fill-rule="evenodd" clip-rule="evenodd" fill="#242E39" d="M237.625,222.234C241.839,225.343,239.169,228.012,237.625,222.234
	L237.625,222.234z"/>
<path fill-rule="evenodd" clip-rule="evenodd" fill="#DAC4BB" d="M247.625,227.234C250.667,224.505,244.896,230.276,247.625,227.234
	L247.625,227.234z"/>
<path fill-rule="evenodd" clip-rule="evenodd" fill="#242E39" d="M334.625,98.234c-0.598,5.265,0.741,8.592,1,13
	c-0.333,0-0.667,0-1,0c0.086,1.419,0.165,2.832-1,3c-1.489-3.295-2.823,1.7-4,2c0.963-4.914-4.913-1.436-5-3
	c-2.167-2.901,1.82-5.752-2-7c0.544,2.532,0.658,5.67,0,7c-1.003-0.003-1.19,0.81-2,1c-0.159-10.174-2.855-17.811-2-29
	c-1.667-1.333-6.364,0.364-6-3c0.333,0,0.667,0,1,0c2.826,0.826,2.591-1.409,5-1c1.151,1.182,1.132,3.535,1,6
	c4.267,0.733,6.917,3.083,7,8c6.439,0.204,1.246-12.93,2-13c4.354,0.979,0.893,9.774,2,14c3.555,1.555,0.604-3.396,3-3
	C332.799,96.061,335.034,95.825,334.625,98.234z M321.625,91.234C322.783,95.186,322.783,87.283,321.625,91.234L321.625,91.234z"/>
<path fill-rule="evenodd" clip-rule="evenodd" fill="#B89883" d="M204.625,121.234c7.075,5.406,5.698,18.817,1,25
	c-1.647-2.91-1.543-8.677-1-11c0-0.667,0-1.333,0-2c0-1,0-2,0-3c-0.595-2.072,1.236-6.569-1-7c0-0.333,0-0.667,0-1
	C204.476,122.418,204.568,121.844,204.625,121.234z M206.625,137.234C207.783,141.186,207.783,133.283,206.625,137.234
	L206.625,137.234z"/>
<path fill-rule="evenodd" clip-rule="evenodd" fill="#DAC4BB" d="M295.625,131.234c-2.671-2.529-9.627-7.988-14-12
	c2.545-4.64-0.371-8.633-1-13c7.206,5.127,23.923,0.744,30,7c-6.173,6.605-4.989,16.168-16,19
	C294.441,131.384,295.015,131.291,295.625,131.234z"/>
<path fill-rule="evenodd" clip-rule="evenodd" fill="#DAC4BB" d="M203.625,118.234c1.165,0.168,1.086,1.581,1,3
	c-0.057,0.61-0.149,1.184-1,1C203.625,120.901,203.625,119.568,203.625,118.234z"/>
<path fill-rule="evenodd" clip-rule="evenodd" fill="#B89883" d="M320.625,61.234c2.62,3.046,6.725,4.609,7,10
	c-1.889-0.111-0.694-3.306-3-3c-2.517,1.816,0.447,9.114-4,9C323.021,71.624,320.316,65.888,320.625,61.234z"/>
</svg>
